<svg xmlns="http://www.w3.org/2000/svg" width="48" height="48" viewBox="0 0 48 48" fill="none">
  <title>PauseButton</title>
  <path d="M24 48C37.2188 48 48 37.3125 48 24C48 10.7812 37.2188 0 24 0C10.6875 0 0 10.7812 0 24C0 37.3125 10.6875 48 24 48ZM21 18V30C21 31.6875 19.5938 33 18 33C16.3125 33 15 31.6875 15 30V18C15 16.4062 16.3125 15 18 15C19.5938 15 21 16.4062 21 18ZM33 18V30C33 31.6875 31.5938 33 30 33C28.3125 33 27 31.6875 27 30V18C27 16.4062 28.3125 15 30 15C31.5938 15 33 16.4062 33 18Z" fill="white" />
</svg>
